<?xml version="1.0" standalone="no"?>
<!DOCTYPE svg PUBLIC "-//W3C//DTD SVG 20010904//EN"
 "http://www.w3.org/TR/2001/REC-SVG-20010904/DTD/svg10.dtd">
<svg version="1.0" xmlns="http://www.w3.org/2000/svg"
 width="500.000000pt" height="500.000000pt" viewBox="0 0 500.000000 500.000000"
 preserveAspectRatio="xMidYMid meet">
<metadata>
Created by potrace 1.14, written by Peter Selinger 2001-2017
</metadata>
<g transform="translate(0.000000,500.000000) scale(0.100000,-0.100000)"
fill="#000000" stroke="none">
<path d="M3200 3837 c-20 -18 -71 -63 -114 -102 -43 -38 -91 -81 -106 -95 -15
-14 -63 -56 -106 -95 -43 -38 -89 -80 -102 -92 -13 -13 -24 -23 -26 -23 -2 0
-3 53 -3 118 l1 117 -134 0 -134 0 -1 -238 0 -238 -35 -32 c-20 -17 -58 -52
-86 -77 -171 -154 -217 -195 -231 -205 -17 -12 -22 -6 123 -162 l39 -43 40 36
c22 19 62 55 88 80 27 24 52 44 56 44 4 0 7 -271 7 -602 -1 -332 1 -611 3
-621 3 -16 17 -17 165 -15 l161 3 2 285 c1 157 2 301 2 321 l1 35 158 0 157
-1 0 -322 0 -323 432 0 433 0 0 620 c0 341 2 620 5 620 3 0 23 -15 43 -34 20
-19 62 -57 92 -85 l55 -51 33 37 c19 21 58 63 87 94 29 30 50 60 47 65 -7 9
-36 36 -222 205 -52 48 -107 97 -121 110 -14 13 -62 58 -108 99 -46 41 -100
91 -120 110 -21 19 -80 73 -131 120 -52 47 -124 112 -160 145 -173 159 -242
220 -248 222 -4 1 -23 -12 -42 -30z m-75 -1142 l0 -163 -159 1 -159 2 1 53 c0
28 1 101 1 161 l1 110 158 -1 157 0 0 -163z m546 105 c0 -33 0 -89 0 -125 0
-36 0 -83 0 -105 l-1 -39 -157 2 -158 2 0 155 c-1 97 3 158 10 162 5 4 76 8
158 8 l147 0 1 -60z"/>
<path d="M532 2419 c-16 -6 -18 -33 -17 -340 l0 -334 215 2 c230 2 232 1 297
-54 12 -10 31 -25 43 -33 12 -8 28 -20 34 -25 11 -11 439 -338 608 -465 149
-112 80 -105 923 -105 l730 0 42 24 c70 40 113 123 107 204 -6 68 -45 121
-116 158 -35 18 -63 19 -476 19 l-438 0 -17 -39 c-50 -114 -131 -171 -251
-179 -126 -7 -150 7 -379 230 -108 106 -197 198 -197 203 1 16 61 78 68 70
176 -176 388 -378 411 -389 42 -22 110 -22 155 -1 78 37 119 152 80 226 -13
27 -646 667 -728 736 -45 39 -102 71 -147 83 -47 13 -914 21 -947 9z"/>
</g>
</svg>
